<svg width="52" height="52" viewBox="0 0 52 52" fill="none" xmlns="http://www.w3.org/2000/svg">
<path d="M25.51 0.0100098C11.4267 0.0100098 0.00999832 11.4267 0.00999832 25.51C0.00999832 39.5933 11.4267 51.01 25.51 51.01C39.5933 51.01 51.01 39.5933 51.01 25.51C51.01 11.4267 39.5933 0.0100098 25.51 0.0100098ZM16.3459 10.139C16.8713 10.1081 17.3462 10.4221 17.7062 10.9795L21.1926 17.591C21.5596 18.3745 21.351 19.2133 20.8035 19.7731L19.2066 21.37C19.1081 21.505 19.0432 21.6571 19.0416 21.8244C19.654 24.1948 21.5116 26.3814 23.1506 27.885C24.7895 29.3887 26.551 31.4245 28.8376 31.9068C29.1202 31.9856 29.4665 32.0139 29.6687 31.8259L31.5239 29.9364C32.1643 29.451 33.0907 29.2158 33.7745 29.6127H33.8056L40.0965 33.3263C41.0199 33.9051 41.1156 35.0239 40.4544 35.7044L36.1215 40.0032C35.4816 40.6594 34.6316 40.88 33.8057 40.881C30.1529 40.7715 26.7014 38.9787 23.8665 37.1363C19.2132 33.7511 14.9448 29.5524 12.2651 24.4797C11.2374 22.3526 10.0301 19.6385 10.1453 17.2643C10.1556 16.3711 10.3972 15.4961 11.0262 14.9204L15.3592 10.5874C15.6967 10.3002 16.0307 10.1576 16.3459 10.139Z" fill="black" stroke="black" stroke-width="0.02"/>
</svg>
