<svg width="116" height="87" viewBox="0 0 116 87" fill="none" xmlns="http://www.w3.org/2000/svg">
<path d="M9.2702 81.818C9.18354 82.026 9.1142 82.13 9.0622 82.13C9.0102 82.13 8.9452 82.0173 8.8672 81.792C8.62454 81.064 8.3082 80.206 7.9182 79.218C7.53687 78.23 7.07754 77.1163 6.5402 75.877C6.50554 75.7817 6.47087 75.734 6.4362 75.734C6.40154 75.734 6.37987 75.7817 6.3712 75.877C6.23254 76.8997 6.12854 77.814 6.0592 78.62C5.98987 79.4173 5.9552 80.102 5.9552 80.674C5.9552 80.882 6.02454 81.09 6.1632 81.298C6.30187 81.506 6.5142 81.636 6.8002 81.688C7.0862 81.74 7.2292 81.8137 7.2292 81.909C7.2292 82.013 7.10354 82.065 6.8522 82.065L5.6302 82L4.4472 82.065C4.19587 82.065 4.0702 82.013 4.0702 81.909C4.0702 81.8137 4.2132 81.74 4.4992 81.688C4.94987 81.61 5.21854 81.272 5.3052 80.674C5.47854 79.3393 5.60854 78.1997 5.6952 77.255C5.79054 76.3103 5.8382 75.5607 5.8382 75.006L5.8252 74.707C5.8252 74.5857 5.78187 74.473 5.6952 74.369C5.60854 74.2563 5.53054 74.1783 5.4612 74.135C5.40054 74.0917 5.32254 74.057 5.2272 74.031C5.13187 73.9963 5.05387 73.9703 4.9932 73.953C4.95854 73.9443 4.91954 73.9357 4.8762 73.927C4.84154 73.9097 4.7982 73.8967 4.7462 73.888C4.6422 73.8707 4.5512 73.849 4.4732 73.823C4.40387 73.797 4.3692 73.732 4.3692 73.628C4.3692 73.5327 4.46887 73.485 4.6682 73.485L6.8262 73.589C6.93887 73.589 7.05587 73.8447 7.1772 74.356C7.2032 74.4687 7.22487 74.564 7.2422 74.642C7.2682 74.7113 7.28554 74.7633 7.2942 74.798L9.3482 80.011C9.4002 80.141 9.4522 80.206 9.5042 80.206C9.54754 80.206 9.5952 80.154 9.6472 80.05L12.2082 74.72C12.2342 74.6593 12.2559 74.59 12.2732 74.512C12.2992 74.434 12.3209 74.3473 12.3382 74.252C12.4162 73.8013 12.4942 73.576 12.5722 73.576H13.0402C13.1442 73.576 13.2655 73.5717 13.4042 73.563C13.5429 73.5543 13.6989 73.5413 13.8722 73.524C14.0455 73.5067 14.1799 73.4937 14.2752 73.485C14.3792 73.4763 14.4485 73.472 14.4832 73.472H14.5222C14.7042 73.472 14.7952 73.5153 14.7952 73.602C14.7952 73.68 14.7389 73.7493 14.6262 73.81C14.5222 73.8707 14.4009 73.9227 14.2622 73.966C14.1322 74.0007 14.0325 74.031 13.9632 74.057C13.8505 74.0917 13.7249 74.161 13.5862 74.265C13.4475 74.369 13.3782 74.486 13.3782 74.616C13.3782 75.1967 13.3869 75.7947 13.4042 76.41C13.4302 77.0253 13.4649 77.6537 13.5082 78.295C13.5949 79.5777 13.6469 80.3793 13.6642 80.7C13.6815 81.012 13.7639 81.2417 13.9112 81.389C14.0672 81.5277 14.3012 81.623 14.6132 81.675C14.9165 81.7443 15.0682 81.8223 15.0682 81.909C15.0682 82.013 14.9425 82.065 14.6912 82.065L13.1702 82L11.8052 82.065C11.5539 82.065 11.4282 82.0173 11.4282 81.922C11.4282 81.8007 11.5625 81.7227 11.8312 81.688C12.0999 81.6533 12.2819 81.5667 12.3772 81.428C12.4725 81.2893 12.5202 81.064 12.5202 80.752C12.5202 79.9027 12.4682 78.308 12.3642 75.968C12.3642 75.8293 12.3425 75.76 12.2992 75.76C12.2645 75.76 12.2169 75.8293 12.1562 75.968L9.2702 81.818ZM18.349 81.675C18.2276 81.7877 18.0456 81.9003 17.803 82.013C17.569 82.1257 17.309 82.182 17.023 82.182C16.8323 82.182 16.646 82.13 16.464 82.026C16.2906 81.9307 16.1476 81.805 16.035 81.649C15.9223 81.4843 15.866 81.3197 15.866 81.155C15.866 80.635 16.1823 80.245 16.815 79.985L18.141 79.439C18.3056 79.3697 18.4053 79.309 18.44 79.257C18.4746 79.205 18.4963 79.0923 18.505 78.919L18.531 78.113V78.087C18.531 77.8617 18.4573 77.6667 18.31 77.502C18.1713 77.3373 18.011 77.255 17.829 77.255C17.6383 77.255 17.4606 77.3027 17.296 77.398C17.1313 77.4847 17.0273 77.567 16.984 77.645C16.9406 77.7317 16.919 77.8227 16.919 77.918L16.932 78.1C16.932 78.152 16.8713 78.2127 16.75 78.282C16.6286 78.3513 16.4986 78.4163 16.36 78.477C16.2213 78.529 16.1216 78.555 16.061 78.555C15.9743 78.555 15.931 78.516 15.931 78.438C15.931 78.2387 16.0003 78.048 16.139 77.866C16.2776 77.684 16.4553 77.5107 16.672 77.346C16.8973 77.1813 17.1313 77.034 17.374 76.904C17.7293 76.7133 18.0673 76.618 18.388 76.618C18.6913 76.618 18.947 76.7307 19.155 76.956C19.363 77.1813 19.4626 77.4543 19.454 77.775L19.389 80.583V80.661C19.389 81.2763 19.545 81.584 19.857 81.584C20.065 81.584 20.2383 81.5233 20.377 81.402C20.3943 81.3847 20.416 81.376 20.442 81.376C20.4766 81.376 20.507 81.389 20.533 81.415C20.5676 81.441 20.585 81.4757 20.585 81.519V81.532C20.5503 81.6013 20.4766 81.688 20.364 81.792C20.2513 81.896 20.1213 81.987 19.974 82.065C19.8266 82.143 19.6836 82.182 19.545 82.182C19.3283 82.182 19.1463 82.1257 18.999 82.013C18.8603 81.9003 18.7606 81.7877 18.7 81.675C18.6393 81.5623 18.6003 81.506 18.583 81.506C18.5396 81.506 18.4616 81.5623 18.349 81.675ZM16.906 80.869C16.906 81.0943 16.9753 81.272 17.114 81.402C17.2526 81.5233 17.4216 81.584 17.621 81.584C17.8203 81.584 18.011 81.506 18.193 81.35C18.375 81.194 18.4703 80.9817 18.479 80.713L18.505 80.076V80.011C18.505 79.8723 18.466 79.803 18.388 79.803C18.336 79.803 18.2753 79.816 18.206 79.842C17.3393 80.1367 16.906 80.479 16.906 80.869ZM22.1634 81.974L21.1104 82.039C20.937 82.039 20.8504 81.9957 20.8504 81.909C20.8504 81.831 20.9284 81.766 21.0844 81.714C21.2404 81.662 21.3444 81.6273 21.3964 81.61C21.4484 81.584 21.5047 81.5363 21.5654 81.467C21.6174 81.3977 21.6434 81.3067 21.6434 81.194V78.399C21.6434 77.853 21.4657 77.541 21.1104 77.463C21.041 77.4457 21.0064 77.3893 21.0064 77.294C21.0064 77.1987 21.0367 77.1467 21.0974 77.138C21.418 77.0773 21.6607 76.9907 21.8254 76.878C21.9727 76.7827 22.094 76.7047 22.1894 76.644C22.2934 76.5833 22.367 76.5357 22.4104 76.501C22.5057 76.449 22.5534 76.4187 22.5534 76.41H22.5924C22.6184 76.41 22.6357 76.4403 22.6444 76.501C22.6444 76.6137 22.6444 76.7263 22.6444 76.839C22.6444 76.9517 22.64 77.0643 22.6314 77.177C22.6227 77.3937 22.6227 77.502 22.6314 77.502C22.6314 77.502 22.653 77.4803 22.6964 77.437C22.8177 77.281 22.8957 77.1943 22.9304 77.177C23.3377 76.8043 23.7364 76.618 24.1264 76.618C24.3084 76.618 24.4557 76.657 24.5684 76.735C24.6897 76.813 24.7504 76.917 24.7504 77.047C24.7504 77.177 24.694 77.32 24.5814 77.476C24.4774 77.632 24.3777 77.71 24.2824 77.71C24.187 77.71 24.0484 77.671 23.8664 77.593C23.6844 77.515 23.55 77.476 23.4634 77.476C23.212 77.476 22.9954 77.5583 22.8134 77.723C22.64 77.8877 22.5534 78.1693 22.5534 78.568V81.129C22.562 81.3543 22.796 81.5407 23.2554 81.688C23.4547 81.7573 23.5544 81.831 23.5544 81.909C23.5544 81.9957 23.4677 82.039 23.2944 82.039L22.1634 81.974ZM29.5212 80.973C29.5212 81.1463 29.4172 81.3283 29.2092 81.519C29.0012 81.701 28.7238 81.857 28.3772 81.987C28.0392 82.117 27.6752 82.182 27.2852 82.182C26.8952 82.182 26.5355 82.0693 26.2062 81.844C25.8855 81.61 25.6255 81.298 25.4262 80.908C25.2355 80.5093 25.1402 80.0587 25.1402 79.556C25.1402 79.0533 25.2615 78.581 25.5042 78.139C25.7468 77.6883 26.0718 77.3243 26.4792 77.047C26.8865 76.7697 27.3372 76.631 27.8312 76.631C28.5678 76.631 29.1052 76.839 29.4432 77.255C29.4865 77.3243 29.5082 77.3893 29.5082 77.45C29.5082 77.528 29.4432 77.6147 29.3132 77.71C29.1918 77.8053 29.0792 77.853 28.9752 77.853C28.8712 77.853 28.7758 77.8097 28.6892 77.723C28.5332 77.5497 28.4032 77.4197 28.2992 77.333C28.1952 77.2463 28.0825 77.19 27.9612 77.164C27.8398 77.1293 27.6752 77.112 27.4672 77.112C27.0165 77.112 26.6655 77.307 26.4142 77.697C26.1628 78.0783 26.0372 78.5637 26.0372 79.153C26.0372 79.543 26.1238 79.92 26.2972 80.284C26.4792 80.6393 26.7262 80.934 27.0382 81.168C27.3502 81.3933 27.7055 81.506 28.1042 81.506C28.3642 81.506 28.5722 81.4583 28.7282 81.363C28.8928 81.259 29.0662 81.09 29.2482 80.856C29.2915 80.8127 29.3305 80.791 29.3652 80.791C29.3998 80.791 29.4345 80.8127 29.4692 80.856C29.5038 80.8907 29.5212 80.9297 29.5212 80.973ZM31.6525 74.681C31.6439 74.863 31.5789 75.0147 31.4575 75.136C31.3362 75.2573 31.1802 75.3223 30.9895 75.331C30.7989 75.3223 30.6429 75.2573 30.5215 75.136C30.4002 75.0147 30.3395 74.8587 30.3395 74.668C30.3395 74.4773 30.4002 74.3213 30.5215 74.2C30.6429 74.0787 30.7989 74.018 30.9895 74.018C31.1802 74.018 31.3362 74.0787 31.4575 74.2C31.5789 74.3213 31.6439 74.4817 31.6525 74.681ZM31.0805 81.974L30.0275 82.039C29.8542 82.039 29.7675 81.9957 29.7675 81.909C29.7675 81.831 29.8889 81.753 30.1315 81.675C30.3829 81.597 30.5259 81.5147 30.5605 81.428C30.6039 81.3413 30.6255 81.2633 30.6255 81.194V78.373C30.6255 77.8357 30.4219 77.5193 30.0145 77.424C29.9452 77.4067 29.9105 77.3503 29.9105 77.255C29.9105 77.1597 29.9409 77.1077 30.0015 77.099C30.4175 76.995 30.8595 76.7913 31.3275 76.488C31.4662 76.4013 31.5442 76.358 31.5615 76.358C31.6222 76.358 31.6525 76.3797 31.6525 76.423C31.5745 77.2117 31.5355 77.7967 31.5355 78.178V81.194C31.5355 81.3673 31.5875 81.48 31.6915 81.532C31.8042 81.584 31.9515 81.6403 32.1335 81.701C32.3069 81.7703 32.3935 81.8397 32.3935 81.909C32.3935 81.9957 32.3069 82.039 32.1335 82.039L31.0805 81.974ZM41.0821 81.818C40.9955 82.026 40.9261 82.13 40.8741 82.13C40.8221 82.13 40.7571 82.0173 40.6791 81.792C40.4365 81.064 40.1201 80.206 39.7301 79.218C39.3488 78.23 38.8895 77.1163 38.3521 75.877C38.3175 75.7817 38.2828 75.734 38.2481 75.734C38.2135 75.734 38.1918 75.7817 38.1831 75.877C38.0445 76.8997 37.9404 77.814 37.8711 78.62C37.8018 79.4173 37.7671 80.102 37.7671 80.674C37.7671 80.882 37.8364 81.09 37.9751 81.298C38.1138 81.506 38.3261 81.636 38.6121 81.688C38.8981 81.74 39.0411 81.8137 39.0411 81.909C39.0411 82.013 38.9155 82.065 38.6641 82.065L37.4421 82L36.2591 82.065C36.0078 82.065 35.8821 82.013 35.8821 81.909C35.8821 81.8137 36.0251 81.74 36.3111 81.688C36.7618 81.61 37.0304 81.272 37.1171 80.674C37.2904 79.3393 37.4204 78.1997 37.5071 77.255C37.6024 76.3103 37.6501 75.5607 37.6501 75.006L37.6371 74.707C37.6371 74.5857 37.5938 74.473 37.5071 74.369C37.4204 74.2563 37.3424 74.1783 37.2731 74.135C37.2124 74.0917 37.1344 74.057 37.0391 74.031C36.9438 73.9963 36.8658 73.9703 36.8051 73.953C36.7704 73.9443 36.7314 73.9357 36.6881 73.927C36.6534 73.9097 36.6101 73.8967 36.5581 73.888C36.4541 73.8707 36.3631 73.849 36.2851 73.823C36.2158 73.797 36.1811 73.732 36.1811 73.628C36.1811 73.5327 36.2808 73.485 36.4801 73.485L38.6381 73.589C38.7508 73.589 38.8678 73.8447 38.9891 74.356C39.0151 74.4687 39.0368 74.564 39.0541 74.642C39.0801 74.7113 39.0975 74.7633 39.1061 74.798L41.1601 80.011C41.2121 80.141 41.2641 80.206 41.3161 80.206C41.3595 80.206 41.4071 80.154 41.4591 80.05L44.0201 74.72C44.0461 74.6593 44.0678 74.59 44.0851 74.512C44.1111 74.434 44.1328 74.3473 44.1501 74.252C44.2281 73.8013 44.3061 73.576 44.3841 73.576H44.8521C44.9561 73.576 45.0775 73.5717 45.2161 73.563C45.3548 73.5543 45.5108 73.5413 45.6841 73.524C45.8575 73.5067 45.9918 73.4937 46.0871 73.485C46.1911 73.4763 46.2605 73.472 46.2951 73.472H46.3341C46.5161 73.472 46.6071 73.5153 46.6071 73.602C46.6071 73.68 46.5508 73.7493 46.4381 73.81C46.3341 73.8707 46.2128 73.9227 46.0741 73.966C45.9441 74.0007 45.8445 74.031 45.7751 74.057C45.6625 74.0917 45.5368 74.161 45.3981 74.265C45.2595 74.369 45.1901 74.486 45.1901 74.616C45.1901 75.1967 45.1988 75.7947 45.2161 76.41C45.2421 77.0253 45.2768 77.6537 45.3201 78.295C45.4068 79.5777 45.4588 80.3793 45.4761 80.7C45.4935 81.012 45.5758 81.2417 45.7231 81.389C45.8791 81.5277 46.1131 81.623 46.4251 81.675C46.7285 81.7443 46.8801 81.8223 46.8801 81.909C46.8801 82.013 46.7545 82.065 46.5031 82.065L44.9821 82L43.6171 82.065C43.3658 82.065 43.2401 82.0173 43.2401 81.922C43.2401 81.8007 43.3745 81.7227 43.6431 81.688C43.9118 81.6533 44.0938 81.5667 44.1891 81.428C44.2845 81.2893 44.3321 81.064 44.3321 80.752C44.3321 79.9027 44.2801 78.308 44.1761 75.968C44.1761 75.8293 44.1544 75.76 44.1111 75.76C44.0764 75.76 44.0288 75.8293 43.9681 75.968L41.0821 81.818ZM51.6689 81.077C51.6342 81.2243 51.5259 81.3847 51.3439 81.558C51.1619 81.7313 50.9236 81.8787 50.6289 82C50.3342 82.1213 49.9962 82.182 49.6149 82.182C49.2336 82.182 48.8782 82.065 48.5489 81.831C48.2282 81.5883 47.9682 81.259 47.7689 80.843C47.5782 80.427 47.4829 79.9547 47.4829 79.426C47.4829 78.8973 47.5956 78.4207 47.8209 77.996C48.0549 77.5713 48.3669 77.2377 48.7569 76.995C49.1469 76.7437 49.5846 76.618 50.0699 76.618C50.5899 76.618 50.9972 76.7263 51.2919 76.943C51.5952 77.1597 51.7469 77.4543 51.7469 77.827C51.7469 78.1997 51.6516 78.4337 51.4609 78.529C51.2789 78.6157 51.0406 78.659 50.7459 78.659H48.6139C48.4926 78.659 48.4059 78.6893 48.3539 78.75C48.3106 78.802 48.2889 78.932 48.2889 79.14C48.2889 79.5387 48.3756 79.9113 48.5489 80.258C48.7222 80.6047 48.9519 80.882 49.2379 81.09C49.5326 81.298 49.8619 81.402 50.2259 81.402C50.7546 81.402 51.1706 81.2113 51.4739 80.83C51.5346 80.7693 51.5822 80.739 51.6169 80.739C51.6776 80.739 51.7079 80.7823 51.7079 80.869C51.7079 80.9297 51.6949 80.999 51.6689 81.077ZM48.5359 78.061C48.5359 78.191 48.6182 78.256 48.7829 78.256H49.8489C50.0482 78.256 50.2259 78.2517 50.3819 78.243C50.5466 78.2257 50.6852 78.2083 50.7979 78.191C50.8846 78.1823 50.9279 78.0567 50.9279 77.814C50.9279 77.58 50.8196 77.3893 50.6029 77.242C50.3862 77.0947 50.1262 77.021 49.8229 77.021C49.6149 77.021 49.4112 77.0817 49.2119 77.203C49.0212 77.3157 48.8609 77.4543 48.7309 77.619C48.6009 77.775 48.5359 77.9223 48.5359 78.061ZM55.6429 81.649C55.5043 81.779 55.3093 81.9003 55.0579 82.013C54.8153 82.1257 54.5726 82.182 54.3299 82.182C53.9053 82.182 53.5716 82.0563 53.3289 81.805C53.0949 81.545 52.9779 81.155 52.9779 80.635V77.619C52.9779 77.541 52.9476 77.489 52.8869 77.463C52.8263 77.437 52.6919 77.424 52.4839 77.424C52.4579 77.424 52.4233 77.3893 52.3799 77.32C52.3453 77.2507 52.3279 77.1987 52.3279 77.164C52.3279 77.1293 52.3496 77.099 52.3929 77.073C52.5923 77.0123 52.7959 76.8867 53.0039 76.696C53.2119 76.5053 53.3809 76.3277 53.5109 76.163C53.6409 75.9983 53.7189 75.916 53.7449 75.916C53.8663 75.916 53.9269 75.9593 53.9269 76.046L53.9009 76.618C53.9009 76.7393 54.0049 76.8 54.2129 76.8H55.6949C55.7816 76.8 55.8249 76.904 55.8249 77.112C55.8249 77.32 55.7816 77.424 55.6949 77.424H54.4079C54.1739 77.424 54.0266 77.4413 53.9659 77.476C53.9139 77.5107 53.8879 77.6147 53.8879 77.788V80.245C53.8879 80.687 53.9703 81.0033 54.1349 81.194C54.2996 81.376 54.5033 81.467 54.7459 81.467C55.1793 81.467 55.5043 81.3847 55.7209 81.22C55.7296 81.2113 55.7426 81.207 55.7599 81.207C55.8206 81.207 55.8509 81.2633 55.8509 81.376C55.8509 81.4453 55.7816 81.5363 55.6429 81.649ZM57.2478 82L56.2078 82.065C56.1732 82.065 56.1342 82.039 56.0908 81.987C56.0475 81.9263 56.0258 81.87 56.0258 81.818C56.0258 81.7573 56.1862 81.5147 56.5068 81.09C56.8275 80.6307 57.1872 80.0933 57.5858 79.478C57.9932 78.8627 58.4395 78.1693 58.9248 77.398C58.9422 77.3807 58.9508 77.359 58.9508 77.333C58.9508 77.2897 58.9032 77.268 58.8078 77.268H57.2868C57.1655 77.268 57.0355 77.3633 56.8968 77.554C56.8795 77.58 56.8578 77.6103 56.8318 77.645C56.8145 77.671 56.7885 77.7057 56.7538 77.749C56.6845 77.853 56.6455 77.9093 56.6368 77.918C56.6108 77.9527 56.5805 77.996 56.5458 78.048C56.5112 78.0913 56.4808 78.126 56.4548 78.152C56.3682 78.2387 56.3032 78.282 56.2598 78.282C56.1905 78.282 56.1558 78.2257 56.1558 78.113C56.1558 78.087 56.1645 78.048 56.1818 77.996C56.3292 77.632 56.4028 77.242 56.4028 76.826C56.4028 76.7653 56.4245 76.7133 56.4678 76.67C56.5198 76.618 56.5632 76.592 56.5978 76.592C56.6412 76.592 56.6975 76.6223 56.7668 76.683C56.8535 76.7523 57.0485 76.787 57.3518 76.787L57.8458 76.774C58.6692 76.774 59.4752 76.761 60.2638 76.735C60.2985 76.735 60.3245 76.7567 60.3418 76.8C60.3678 76.8347 60.3722 76.865 60.3548 76.891C60.1728 77.1077 60.0082 77.3243 59.8608 77.541L57.3518 81.35C57.3432 81.3587 57.3388 81.376 57.3388 81.402C57.3388 81.4367 57.3562 81.4713 57.3908 81.506C57.4342 81.532 57.4732 81.545 57.5078 81.545H59.0288C59.2022 81.545 59.3712 81.4627 59.5358 81.298C59.7092 81.1333 59.9128 80.882 60.1468 80.544C60.2508 80.336 60.3462 80.232 60.4328 80.232C60.5022 80.232 60.5368 80.31 60.5368 80.466C60.5368 80.544 60.5195 80.6653 60.4848 80.83C60.4502 80.986 60.4068 81.1507 60.3548 81.324C60.3028 81.4973 60.2508 81.649 60.1988 81.779C60.1555 81.9003 60.1252 81.974 60.1078 82C60.0645 82.0433 60.0255 82.065 59.9908 82.065L59.0158 82.026C58.7125 82.0173 58.4092 82.0087 58.1058 82C57.8112 82 57.5252 82 57.2478 82ZM65.7752 83.001C65.7752 83.3477 65.6885 83.6857 65.5152 84.015C65.3419 84.3443 65.1122 84.639 64.8262 84.899C64.5489 85.1677 64.2412 85.38 63.9032 85.536C63.5652 85.692 63.2315 85.77 62.9022 85.77C62.4602 85.77 62.0572 85.718 61.6932 85.614C61.3292 85.51 61.0345 85.3497 60.8092 85.133C60.5925 84.9163 60.4842 84.6347 60.4842 84.288C60.4842 84.0193 60.5492 83.7853 60.6792 83.586C60.8179 83.3953 61.0475 83.2003 61.3682 83.001C61.6715 82.8103 61.8925 82.611 62.0312 82.403C61.7365 82.3423 61.4679 82.2297 61.2252 82.065C60.9825 81.909 60.8612 81.6967 60.8612 81.428C60.8612 81.2633 60.9609 81.103 61.1602 80.947C61.2209 80.895 61.3032 80.843 61.4072 80.791C61.6412 80.6523 61.8145 80.505 61.9272 80.349C61.8145 80.323 61.6499 80.2103 61.4332 80.011C61.0085 79.6123 60.7962 79.1313 60.7962 78.568C60.7962 78.1867 60.9045 77.8487 61.1212 77.554C61.3379 77.2593 61.6239 77.0253 61.9792 76.852C62.3345 76.6787 62.7115 76.592 63.1102 76.592C63.2229 76.592 63.3399 76.605 63.4612 76.631C63.5912 76.657 63.7299 76.6917 63.8772 76.735C64.4405 76.9083 64.8782 76.995 65.1902 76.995L65.6062 76.982H65.7622C65.8315 76.982 65.8879 76.995 65.9312 77.021C65.9745 77.047 65.9962 77.1163 65.9962 77.229C65.9962 77.385 65.9572 77.463 65.8792 77.463C65.5672 77.463 65.3852 77.4717 65.3332 77.489L65.2292 77.528C65.1945 77.5453 65.1642 77.5583 65.1382 77.567C65.1035 77.645 65.0862 77.8443 65.0862 78.165C65.0862 78.5983 64.9909 79.0013 64.8002 79.374C64.6095 79.7467 64.3495 80.05 64.0202 80.284C63.6909 80.5093 63.3182 80.622 62.9022 80.622C62.6335 80.622 62.3995 80.57 62.2002 80.466C61.8189 80.7693 61.6282 80.9817 61.6282 81.103C61.6282 81.3803 62.0442 81.558 62.8762 81.636C64.0202 81.74 64.6832 81.8353 64.8652 81.922C64.9952 81.974 65.1295 82.0347 65.2682 82.104C65.4155 82.182 65.5369 82.286 65.6322 82.416C65.7275 82.5547 65.7752 82.7497 65.7752 83.001ZM61.8102 78.542C61.8102 78.802 61.8622 79.0577 61.9662 79.309C62.0702 79.5517 62.2132 79.7553 62.3952 79.92C62.5772 80.0847 62.7809 80.167 63.0062 80.167C63.2315 80.167 63.4309 80.0933 63.6042 79.946C63.7862 79.7987 63.9249 79.6037 64.0202 79.361C64.1242 79.1097 64.1762 78.8453 64.1762 78.568C64.1762 78.2907 64.1199 78.0307 64.0072 77.788C63.9032 77.5453 63.7602 77.3503 63.5782 77.203C63.3962 77.0557 63.1882 76.982 62.9542 76.982C62.7289 76.982 62.5295 77.06 62.3562 77.216C62.1829 77.3633 62.0485 77.5583 61.9532 77.801C61.8579 78.035 61.8102 78.282 61.8102 78.542ZM61.4072 83.742C61.4072 84.184 61.5545 84.5437 61.8492 84.821C62.1525 85.107 62.5599 85.25 63.0712 85.25C63.4179 85.25 63.7342 85.1677 64.0202 85.003C64.3062 84.847 64.5359 84.6303 64.7092 84.353C64.8912 84.0757 64.9822 83.7637 64.9822 83.417C64.9822 83.2003 64.8739 83.0183 64.6572 82.871C64.4492 82.7237 64.1979 82.6197 63.9032 82.559C63.5999 82.507 63.1882 82.468 62.6682 82.442H62.3692C62.3172 82.4767 62.2349 82.5417 62.1222 82.637C62.0182 82.741 61.8839 82.8753 61.7192 83.04C61.5112 83.2827 61.4072 83.5167 61.4072 83.742ZM70.3066 81.077C70.272 81.2243 70.1636 81.3847 69.9816 81.558C69.7996 81.7313 69.5613 81.8787 69.2666 82C68.972 82.1213 68.634 82.182 68.2526 82.182C67.8713 82.182 67.516 82.065 67.1866 81.831C66.866 81.5883 66.606 81.259 66.4066 80.843C66.216 80.427 66.1206 79.9547 66.1206 79.426C66.1206 78.8973 66.2333 78.4207 66.4586 77.996C66.6926 77.5713 67.0046 77.2377 67.3946 76.995C67.7846 76.7437 68.2223 76.618 68.7076 76.618C69.2276 76.618 69.635 76.7263 69.9296 76.943C70.233 77.1597 70.3846 77.4543 70.3846 77.827C70.3846 78.1997 70.2893 78.4337 70.0986 78.529C69.9166 78.6157 69.6783 78.659 69.3836 78.659H67.2516C67.1303 78.659 67.0436 78.6893 66.9916 78.75C66.9483 78.802 66.9266 78.932 66.9266 79.14C66.9266 79.5387 67.0133 79.9113 67.1866 80.258C67.36 80.6047 67.5896 80.882 67.8756 81.09C68.1703 81.298 68.4996 81.402 68.8636 81.402C69.3923 81.402 69.8083 81.2113 70.1116 80.83C70.1723 80.7693 70.22 80.739 70.2546 80.739C70.3153 80.739 70.3456 80.7823 70.3456 80.869C70.3456 80.9297 70.3326 80.999 70.3066 81.077ZM67.1736 78.061C67.1736 78.191 67.256 78.256 67.4206 78.256H68.4866C68.686 78.256 68.8636 78.2517 69.0196 78.243C69.1843 78.2257 69.323 78.2083 69.4356 78.191C69.5223 78.1823 69.5656 78.0567 69.5656 77.814C69.5656 77.58 69.4573 77.3893 69.2406 77.242C69.024 77.0947 68.764 77.021 68.4606 77.021C68.2526 77.021 68.049 77.0817 67.8496 77.203C67.659 77.3157 67.4986 77.4543 67.3686 77.619C67.2386 77.775 67.1736 77.9223 67.1736 78.061ZM72.2007 81.974L71.1477 82.039C70.9743 82.039 70.8877 81.9957 70.8877 81.909C70.8877 81.831 70.9657 81.766 71.1217 81.714C71.2777 81.662 71.3817 81.6273 71.4337 81.61C71.4857 81.584 71.542 81.5363 71.6027 81.467C71.6547 81.3977 71.6807 81.3067 71.6807 81.194V78.399C71.6807 77.853 71.503 77.541 71.1477 77.463C71.0783 77.4457 71.0437 77.3893 71.0437 77.294C71.0437 77.1987 71.074 77.1467 71.1347 77.138C71.4553 77.0773 71.698 76.9907 71.8627 76.878C72.01 76.7827 72.1313 76.7047 72.2267 76.644C72.3307 76.5833 72.4043 76.5357 72.4477 76.501C72.543 76.449 72.5907 76.4187 72.5907 76.41H72.6297C72.6557 76.41 72.673 76.4403 72.6817 76.501C72.6817 76.6137 72.6817 76.7263 72.6817 76.839C72.6817 76.9517 72.6773 77.0643 72.6687 77.177C72.66 77.3937 72.66 77.502 72.6687 77.502C72.6687 77.502 72.6903 77.4803 72.7337 77.437C72.855 77.281 72.933 77.1943 72.9677 77.177C73.375 76.8043 73.7737 76.618 74.1637 76.618C74.3457 76.618 74.493 76.657 74.6057 76.735C74.727 76.813 74.7877 76.917 74.7877 77.047C74.7877 77.177 74.7313 77.32 74.6187 77.476C74.5147 77.632 74.415 77.71 74.3197 77.71C74.2243 77.71 74.0857 77.671 73.9037 77.593C73.7217 77.515 73.5873 77.476 73.5007 77.476C73.2493 77.476 73.0327 77.5583 72.8507 77.723C72.6773 77.8877 72.5907 78.1693 72.5907 78.568V81.129C72.5993 81.3543 72.8333 81.5407 73.2927 81.688C73.492 81.7573 73.5917 81.831 73.5917 81.909C73.5917 81.9957 73.505 82.039 73.3317 82.039L72.2007 81.974ZM79.7435 82L78.3135 82.065C78.0622 82.065 77.9365 82.013 77.9365 81.909C77.9365 81.8223 78.0882 81.7443 78.3915 81.675C78.6948 81.623 78.8942 81.532 78.9895 81.402C79.0935 81.2633 79.1455 81.0337 79.1455 80.713V74.837C79.1455 74.5163 79.1065 74.2953 79.0285 74.174C78.9505 74.0527 78.7642 73.966 78.4695 73.914C78.1748 73.862 78.0275 73.7753 78.0275 73.654C78.0275 73.5587 78.1532 73.511 78.4045 73.511L79.7435 73.55L81.1215 73.511C81.3728 73.511 81.4985 73.5587 81.4985 73.654C81.4985 73.7753 81.3555 73.862 81.0695 73.914C80.4802 74.018 80.1855 74.3257 80.1855 74.837V77.333C80.1855 77.411 80.2462 77.45 80.3675 77.45H85.1905C85.2512 77.45 85.2815 77.398 85.2815 77.294V74.824C85.2815 74.3213 84.9955 74.018 84.4235 73.914C84.1375 73.862 83.9945 73.7753 83.9945 73.654C83.9945 73.5587 84.1202 73.511 84.3715 73.511L85.8795 73.55L87.0625 73.511C87.3138 73.511 87.4395 73.5587 87.4395 73.654C87.4395 73.7753 87.2965 73.862 87.0105 73.914C86.7158 73.966 86.5252 74.0613 86.4385 74.2C86.3605 74.33 86.3215 74.538 86.3215 74.824V80.7C86.3215 81.038 86.3648 81.2763 86.4515 81.415C86.5382 81.545 86.7288 81.636 87.0235 81.688C87.3182 81.74 87.4655 81.8137 87.4655 81.909C87.4655 82.013 87.3398 82.065 87.0885 82.065L85.7365 82L84.3455 82.065C84.0942 82.065 83.9685 82.013 83.9685 81.909C83.9685 81.8137 84.1115 81.74 84.3975 81.688C84.9868 81.5667 85.2815 81.2503 85.2815 80.739V78.269C85.2815 78.139 85.2598 78.074 85.2165 78.074H80.2505C80.2072 78.074 80.1855 78.1217 80.1855 78.217V80.622C80.1855 80.8907 80.2808 81.1247 80.4715 81.324C80.6622 81.5147 80.9048 81.636 81.1995 81.688C81.4942 81.74 81.6415 81.8137 81.6415 81.909C81.6415 82.013 81.5158 82.065 81.2645 82.065L79.7435 82ZM93.3099 79.309C93.3099 79.8117 93.1929 80.284 92.9589 80.726C92.7336 81.1593 92.3999 81.5103 91.9579 81.779C91.5246 82.0477 90.9959 82.182 90.3719 82.182C89.8866 82.182 89.4446 82.0693 89.0459 81.844C88.6559 81.6187 88.3483 81.311 88.1229 80.921C87.8976 80.5223 87.7849 80.0717 87.7849 79.569C87.7849 79.1963 87.8586 78.8367 88.0059 78.49C88.1533 78.1347 88.3569 77.8183 88.6169 77.541C88.8856 77.255 89.1889 77.0297 89.5269 76.865C89.8649 76.7003 90.2246 76.618 90.6059 76.618C91.1173 76.618 91.5766 76.7393 91.9839 76.982C92.3913 77.216 92.7119 77.5367 92.9459 77.944C93.1886 78.3427 93.3099 78.7977 93.3099 79.309ZM88.8509 79.27C88.8509 79.712 88.9289 80.128 89.0849 80.518C89.2496 80.8993 89.4663 81.207 89.7349 81.441C90.0123 81.675 90.3156 81.792 90.6449 81.792C91.0783 81.792 91.4076 81.701 91.6329 81.519C91.8669 81.3283 92.0273 81.0683 92.1139 80.739C92.2006 80.401 92.2439 80.011 92.2439 79.569C92.2439 79.1183 92.1616 78.7023 91.9969 78.321C91.8409 77.931 91.6243 77.619 91.3469 77.385C91.0783 77.1423 90.7663 77.021 90.4109 77.021C89.3709 77.021 88.8509 77.7707 88.8509 79.27ZM94.7414 81.974L93.6884 82.039C93.5151 82.039 93.4284 81.9957 93.4284 81.909C93.4284 81.857 93.4631 81.8137 93.5324 81.779C93.6018 81.7357 93.6754 81.701 93.7534 81.675C93.8314 81.649 93.8791 81.636 93.8964 81.636C93.9138 81.636 93.9571 81.6187 94.0264 81.584C94.0958 81.5493 94.1391 81.519 94.1564 81.493C94.2431 81.4063 94.2864 81.3067 94.2864 81.194V78.399C94.2864 78.1303 94.2518 77.918 94.1824 77.762C94.1131 77.606 93.9788 77.5063 93.7794 77.463C93.7101 77.4457 93.6754 77.3893 93.6754 77.294C93.6754 77.1987 93.7058 77.1467 93.7664 77.138C93.9658 77.0947 94.1651 77.021 94.3644 76.917C94.5724 76.813 94.7848 76.6873 95.0014 76.54L95.1964 76.423H95.2094C95.2441 76.423 95.2744 76.449 95.3004 76.501L95.2354 77.333C95.2354 77.4197 95.2441 77.4717 95.2614 77.489C95.8768 76.9083 96.5614 76.618 97.3154 76.618C97.9308 76.618 98.3338 76.878 98.5244 77.398C98.5678 77.4933 98.6154 77.541 98.6674 77.541C98.7108 77.541 98.8018 77.4587 98.9404 77.294C99.0791 77.138 99.3218 76.9863 99.6684 76.839C100.015 76.6917 100.388 76.618 100.786 76.618C101.046 76.618 101.272 76.7003 101.462 76.865C101.662 77.0297 101.813 77.2507 101.917 77.528C102.021 77.7967 102.073 78.0957 102.073 78.425V81.194C102.073 81.3673 102.125 81.48 102.229 81.532C102.342 81.584 102.489 81.6403 102.671 81.701C102.845 81.7703 102.931 81.8397 102.931 81.909C102.931 81.9957 102.845 82.039 102.671 82.039L101.644 81.974L100.565 82.039C100.392 82.039 100.305 81.9957 100.305 81.909C100.305 81.831 100.405 81.7573 100.604 81.688C100.622 81.688 100.639 81.6837 100.656 81.675C100.951 81.5797 101.116 81.4627 101.15 81.324C101.159 81.3067 101.163 81.285 101.163 81.259C101.163 81.233 101.163 81.2113 101.163 81.194V78.464C101.163 78.1433 101.059 77.8573 100.851 77.606C100.643 77.3547 100.401 77.229 100.123 77.229C99.6641 77.229 99.3001 77.333 99.0314 77.541C98.7628 77.749 98.6284 78.074 98.6284 78.516V81.194C98.6284 81.2893 98.6414 81.35 98.6674 81.376L98.7194 81.454C98.7368 81.4887 98.7584 81.5103 98.7844 81.519C98.8278 81.5277 98.8538 81.5407 98.8624 81.558C98.8798 81.5753 98.9101 81.5883 98.9534 81.597C98.9968 81.6057 99.0228 81.6187 99.0314 81.636C99.1008 81.6707 99.1614 81.688 99.2134 81.688C99.4128 81.7573 99.5124 81.831 99.5124 81.909C99.5124 81.9957 99.4258 82.039 99.2524 82.039L98.1864 81.974L97.1074 82.039C96.9341 82.039 96.8474 81.9957 96.8474 81.909C96.8474 81.831 96.9688 81.753 97.2114 81.675C97.4541 81.597 97.6014 81.5147 97.6534 81.428C97.6968 81.3413 97.7184 81.2633 97.7184 81.194V78.464C97.7184 78.1433 97.6144 77.8573 97.4064 77.606C97.1984 77.3547 96.9558 77.229 96.6784 77.229C96.2191 77.229 95.8551 77.333 95.5864 77.541C95.3264 77.7403 95.1964 78.0653 95.1964 78.516V81.194C95.1964 81.3587 95.2441 81.4713 95.3394 81.532C95.4434 81.584 95.5128 81.6143 95.5474 81.623C95.8854 81.7097 96.0544 81.8093 96.0544 81.922C96.0544 82 95.9678 82.039 95.7944 82.039L94.7414 81.974ZM107.161 81.077C107.126 81.2243 107.018 81.3847 106.836 81.558C106.654 81.7313 106.415 81.8787 106.121 82C105.826 82.1213 105.488 82.182 105.107 82.182C104.725 82.182 104.37 82.065 104.041 81.831C103.72 81.5883 103.46 81.259 103.261 80.843C103.07 80.427 102.975 79.9547 102.975 79.426C102.975 78.8973 103.087 78.4207 103.313 77.996C103.547 77.5713 103.859 77.2377 104.249 76.995C104.639 76.7437 105.076 76.618 105.562 76.618C106.082 76.618 106.489 76.7263 106.784 76.943C107.087 77.1597 107.239 77.4543 107.239 77.827C107.239 78.1997 107.143 78.4337 106.953 78.529C106.771 78.6157 106.532 78.659 106.238 78.659H104.106C103.984 78.659 103.898 78.6893 103.846 78.75C103.802 78.802 103.781 78.932 103.781 79.14C103.781 79.5387 103.867 79.9113 104.041 80.258C104.214 80.6047 104.444 80.882 104.73 81.09C105.024 81.298 105.354 81.402 105.718 81.402C106.246 81.402 106.662 81.2113 106.966 80.83C107.026 80.7693 107.074 80.739 107.109 80.739C107.169 80.739 107.2 80.7823 107.2 80.869C107.2 80.9297 107.187 80.999 107.161 81.077ZM104.028 78.061C104.028 78.191 104.11 78.256 104.275 78.256H105.341C105.54 78.256 105.718 78.2517 105.874 78.243C106.038 78.2257 106.177 78.2083 106.29 78.191C106.376 78.1823 106.42 78.0567 106.42 77.814C106.42 77.58 106.311 77.3893 106.095 77.242C105.878 77.0947 105.618 77.021 105.315 77.021C105.107 77.021 104.903 77.0817 104.704 77.203C104.513 77.3157 104.353 77.4543 104.223 77.619C104.093 77.775 104.028 77.9223 104.028 78.061ZM110.784 80.622C110.784 81.662 110.16 82.182 108.912 82.182C108.591 82.182 108.292 82.1257 108.015 82.013C107.737 81.909 107.577 81.8093 107.534 81.714C107.43 81.4973 107.373 81.233 107.365 80.921C107.365 80.843 107.434 80.804 107.573 80.804C107.703 80.804 107.772 80.8343 107.781 80.895C107.815 81.0423 107.893 81.1897 108.015 81.337C108.145 81.4843 108.296 81.6057 108.47 81.701C108.652 81.7877 108.838 81.831 109.029 81.831C109.306 81.831 109.518 81.7487 109.666 81.584C109.822 81.4193 109.9 81.2157 109.9 80.973C109.9 80.7303 109.822 80.5267 109.666 80.362C109.51 80.1887 109.25 79.972 108.886 79.712C108.513 79.452 108.214 79.2007 107.989 78.958C107.772 78.7067 107.664 78.4033 107.664 78.048C107.664 77.8053 107.729 77.5757 107.859 77.359C107.989 77.1423 108.175 76.9647 108.418 76.826C108.66 76.6873 108.955 76.618 109.302 76.618C109.822 76.618 110.181 76.7177 110.381 76.917C110.528 77.1077 110.602 77.4457 110.602 77.931C110.602 77.9657 110.571 77.983 110.511 77.983C110.45 77.983 110.363 77.9527 110.251 77.892C110.138 77.8227 110.082 77.762 110.082 77.71C110.073 77.5193 109.986 77.346 109.822 77.19C109.657 77.034 109.462 76.956 109.237 76.956C109.003 76.956 108.812 77.034 108.665 77.19C108.517 77.346 108.444 77.528 108.444 77.736C108.444 77.944 108.517 78.1347 108.665 78.308C108.812 78.4813 108.942 78.6027 109.055 78.672C109.107 78.7067 109.172 78.7543 109.25 78.815C109.336 78.867 109.436 78.9277 109.549 78.997C109.696 79.0837 109.817 79.1617 109.913 79.231C110.017 79.3003 110.116 79.3827 110.212 79.478C110.307 79.5647 110.411 79.6903 110.524 79.855C110.697 80.1063 110.784 80.362 110.784 80.622Z" fill="#D2E5FF"/>
<line y1="65.75" x2="115" y2="65.75" stroke="#D2E5FF" stroke-width="0.5"/>
<path d="M50.024 57.36C48.616 57.36 47.656 56.8907 47.144 55.952C46.6747 55.056 46.44 54.0107 46.44 52.816C46.44 51.024 46.7813 48.9333 47.464 46.544C48.1893 44.112 49.064 41.616 50.088 39.056C51.1547 36.4533 52.2427 34 53.352 31.696C54.4613 29.3493 55.4213 27.3653 56.232 25.744C54.9947 27.28 53.7147 28.816 52.392 30.352C51.112 31.8453 49.7893 33.3387 48.424 34.832C47.6133 35.7707 46.7813 36.7307 45.928 37.712C45.1173 38.6507 44.264 39.5467 43.368 40.4C42.6427 41.1253 41.704 41.9787 40.552 42.96C39.4 43.8987 38.184 44.7307 36.904 45.456C35.624 46.1387 34.4293 46.48 33.32 46.48C32.168 46.48 31.336 46.096 30.824 45.328C30.312 44.56 29.9707 43.664 29.8 42.64C29.672 41.5733 29.608 40.6133 29.608 39.76C29.608 36.9867 29.8 34.1707 30.184 31.312C30.6107 28.4533 31.1013 25.68 31.656 22.992C30.504 25.4667 29.3307 27.9413 28.136 30.416C26.9413 32.8907 25.6827 35.344 24.36 37.776C23.8053 38.8427 23.0373 40.1653 22.056 41.744C21.0747 43.3227 19.944 44.9867 18.664 46.736C17.384 48.4853 16.04 50.128 14.632 51.664C13.224 53.2 11.7733 54.4373 10.28 55.376C8.82933 56.3573 7.4 56.848 5.992 56.848C4.75467 56.848 3.752 56.4427 2.984 55.632C2.25867 54.8213 1.704 53.7973 1.32 52.56C0.936 51.3653 0.68 50.1493 0.552 48.912C0.424 47.632 0.36 46.544 0.36 45.648C0.36 44.7947 0.424 43.6427 0.552 42.192C0.68 40.7413 0.893333 39.312 1.192 37.904C1.49067 36.496 1.87467 35.4293 2.344 34.704C2.42933 34.6187 2.536 34.512 2.664 34.384C2.792 34.2133 2.94133 34.128 3.112 34.128C3.32533 34.128 3.432 34.2773 3.432 34.576C3.432 34.704 3.38933 34.8533 3.304 35.024C2.32267 38.224 1.832 41.552 1.832 45.008C1.832 45.648 1.87467 46.48 1.96 47.504C2.088 48.4853 2.30133 49.4667 2.6 50.448C2.94133 51.4293 3.38933 52.24 3.944 52.88C4.54133 53.5627 5.288 53.904 6.184 53.904C7.50667 53.904 8.97867 53.2 10.6 51.792C12.264 50.4267 13.992 48.6133 15.784 46.352C17.6187 44.048 19.4107 41.552 21.16 38.864C22.952 36.1333 24.616 33.4453 26.152 30.8C27.688 28.112 29.032 25.68 30.184 23.504C31.336 21.2853 32.168 19.5787 32.68 18.384C32.7653 18.1707 32.936 17.8293 33.192 17.36C33.4907 16.8907 33.7893 16.656 34.088 16.656C34.216 16.656 34.28 16.7627 34.28 16.976C34.28 17.2747 34.1307 17.744 33.832 18.384C33.5333 19.024 33.2987 19.5147 33.128 19.856C33.6827 19.6427 34.216 19.536 34.728 19.536C35.1547 19.536 35.368 19.7067 35.368 20.048C35.368 20.3467 35.2827 20.7307 35.112 21.2C34.984 21.6693 34.8773 22.0533 34.792 22.352C34.0667 24.9973 33.5547 27.792 33.256 30.736C32.9573 33.68 32.808 36.5387 32.808 39.312C32.808 40.08 32.936 40.912 33.192 41.808C33.4907 42.6613 34.1307 43.088 35.112 43.088C36.0933 43.088 37.288 42.6187 38.696 41.68C40.1467 40.7413 41.704 39.504 43.368 37.968C45.0747 36.3893 46.7813 34.6827 48.488 32.848C50.1947 31.0133 51.816 29.1787 53.352 27.344C54.888 25.4667 56.232 23.7813 57.384 22.288C58.536 20.752 59.3893 19.5573 59.944 18.704C60.2 18.32 60.4347 17.936 60.648 17.552C60.8613 17.168 61.0747 16.7627 61.288 16.336C61.2453 16.2507 61.224 16.1013 61.224 15.888C61.224 15.632 61.4373 15.1413 61.864 14.416C62.2907 13.6907 62.7387 12.944 63.208 12.176C63.6773 11.408 63.9973 10.8747 64.168 10.576C64.552 10.2347 65.0213 9.97867 65.576 9.808C66.1733 9.63733 66.728 9.552 67.24 9.552C67.4533 9.552 67.752 9.59466 68.136 9.68C68.52 9.72267 68.712 9.91467 68.712 10.256V10.448C67.9867 11.5147 67.2613 12.5813 66.536 13.648C65.8107 14.7147 65.1067 15.8027 64.424 16.912C62.9733 19.2587 61.48 21.8187 59.944 24.592C58.408 27.3227 56.9787 30.16 55.656 33.104C54.3333 36.048 53.2027 39.0133 52.264 42C51.3253 44.944 50.728 47.8027 50.472 50.576C50.4293 50.8747 50.408 51.1733 50.408 51.472C50.408 51.7707 50.408 52.0693 50.408 52.368C50.408 52.7093 50.4293 53.1787 50.472 53.776C50.5573 54.416 50.7067 54.9707 50.92 55.44C51.1333 55.952 51.496 56.208 52.008 56.208C52.3493 56.208 52.6907 56.144 53.032 56.016C53.3733 55.9307 53.7147 55.888 54.056 55.888C54.0987 55.888 54.2053 55.888 54.376 55.888C54.5467 55.888 54.632 55.9307 54.632 56.016C54.632 56.1867 54.2907 56.3787 53.608 56.592C52.968 56.8053 52.264 56.976 51.496 57.104C50.7707 57.2747 50.28 57.36 50.024 57.36ZM18.984 26L18.536 25.936C17.7253 25.808 16.6373 25.5947 15.272 25.296C13.9067 24.9547 12.52 24.5067 11.112 23.952C9.74667 23.3547 8.59467 22.6293 7.656 21.776C6.71733 20.9227 6.248 19.92 6.248 18.768C6.248 17.6587 6.65333 16.7413 7.464 16.016C8.31733 15.2907 9.34133 14.736 10.536 14.352C11.7733 13.968 13.0107 13.712 14.248 13.584C15.4853 13.4133 16.488 13.328 17.256 13.328C18.152 13.328 19.048 13.3707 19.944 13.456C20.8827 13.5413 21.7787 13.648 22.632 13.776C24.9787 14.1173 27.3253 14.4373 29.672 14.736C32.0613 15.0347 34.4293 15.184 36.776 15.184C37.416 15.184 38.248 15.1413 39.272 15.056C40.3387 14.9707 41.128 14.6933 41.64 14.224C41.7253 14.1387 41.7893 14.0747 41.832 14.032C41.9173 13.9467 42.024 13.904 42.152 13.904C42.2373 13.904 42.28 13.9467 42.28 14.032C42.28 14.16 42.216 14.288 42.088 14.416C41.6187 15.0133 40.8507 15.4827 39.784 15.824C38.76 16.1227 37.6933 16.3147 36.584 16.4C35.4747 16.4853 34.5573 16.528 33.832 16.528C31.8693 16.528 29.8853 16.4213 27.88 16.208C25.9173 15.952 23.9547 15.6747 21.992 15.376C21.4373 15.2907 20.8613 15.2267 20.264 15.184C19.6667 15.0987 19.0693 15.056 18.472 15.056C17.576 15.056 16.488 15.184 15.208 15.44C13.9707 15.696 12.8827 16.1653 11.944 16.848C11.0053 17.488 10.536 18.4267 10.536 19.664C10.536 20.6027 10.856 21.4347 11.496 22.16C12.136 22.8427 12.8827 23.4187 13.736 23.888C14.632 24.3147 15.464 24.656 16.232 24.912C16.7013 25.04 17.1707 25.1467 17.64 25.232C18.1093 25.2747 18.5787 25.3387 19.048 25.424C19.1333 25.4667 19.24 25.5093 19.368 25.552C19.496 25.5947 19.56 25.6587 19.56 25.744C19.56 25.8293 19.4747 25.8933 19.304 25.936C19.176 25.9787 19.0693 26 18.984 26Z" fill="#D2E5FF"/>
<path d="M65.976 57.36C67.384 57.36 68.344 56.8907 68.856 55.952C69.3253 55.056 69.56 54.0107 69.56 52.816C69.56 51.024 69.2187 48.9333 68.536 46.544C67.8107 44.112 66.936 41.616 65.912 39.056C64.8453 36.4533 63.7573 34 62.648 31.696C61.5387 29.3493 60.5787 27.3653 59.768 25.744C61.0053 27.28 62.2853 28.816 63.608 30.352C64.888 31.8453 66.2107 33.3387 67.576 34.832C68.3867 35.7707 69.2187 36.7307 70.072 37.712C70.8827 38.6507 71.736 39.5467 72.632 40.4C73.3573 41.1253 74.296 41.9787 75.448 42.96C76.6 43.8987 77.816 44.7307 79.096 45.456C80.376 46.1387 81.5707 46.48 82.68 46.48C83.832 46.48 84.664 46.096 85.176 45.328C85.688 44.56 86.0293 43.664 86.2 42.64C86.328 41.5733 86.392 40.6133 86.392 39.76C86.392 36.9867 86.2 34.1707 85.816 31.312C85.3893 28.4533 84.8987 25.68 84.344 22.992C85.496 25.4667 86.6693 27.9413 87.864 30.416C89.0587 32.8907 90.3173 35.344 91.64 37.776C92.1947 38.8427 92.9627 40.1653 93.944 41.744C94.9253 43.3227 96.056 44.9867 97.336 46.736C98.616 48.4853 99.96 50.128 101.368 51.664C102.776 53.2 104.227 54.4373 105.72 55.376C107.171 56.3573 108.6 56.848 110.008 56.848C111.245 56.848 112.248 56.4427 113.016 55.632C113.741 54.8213 114.296 53.7973 114.68 52.56C115.064 51.3653 115.32 50.1493 115.448 48.912C115.576 47.632 115.64 46.544 115.64 45.648C115.64 44.7947 115.576 43.6427 115.448 42.192C115.32 40.7413 115.107 39.312 114.808 37.904C114.509 36.496 114.125 35.4293 113.656 34.704C113.571 34.6187 113.464 34.512 113.336 34.384C113.208 34.2133 113.059 34.128 112.888 34.128C112.675 34.128 112.568 34.2773 112.568 34.576C112.568 34.704 112.611 34.8533 112.696 35.024C113.677 38.224 114.168 41.552 114.168 45.008C114.168 45.648 114.125 46.48 114.04 47.504C113.912 48.4853 113.699 49.4667 113.4 50.448C113.059 51.4293 112.611 52.24 112.056 52.88C111.459 53.5627 110.712 53.904 109.816 53.904C108.493 53.904 107.021 53.2 105.4 51.792C103.736 50.4267 102.008 48.6133 100.216 46.352C98.3813 44.048 96.5893 41.552 94.84 38.864C93.048 36.1333 91.384 33.4453 89.848 30.8C88.312 28.112 86.968 25.68 85.816 23.504C84.664 21.2853 83.832 19.5787 83.32 18.384C83.2347 18.1707 83.064 17.8293 82.808 17.36C82.5093 16.8907 82.2107 16.656 81.912 16.656C81.784 16.656 81.72 16.7627 81.72 16.976C81.72 17.2747 81.8693 17.744 82.168 18.384C82.4667 19.024 82.7013 19.5147 82.872 19.856C82.3173 19.6427 81.784 19.536 81.272 19.536C80.8453 19.536 80.632 19.7067 80.632 20.048C80.632 20.3467 80.7173 20.7307 80.888 21.2C81.016 21.6693 81.1227 22.0533 81.208 22.352C81.9333 24.9973 82.4453 27.792 82.744 30.736C83.0427 33.68 83.192 36.5387 83.192 39.312C83.192 40.08 83.064 40.912 82.808 41.808C82.5093 42.6613 81.8693 43.088 80.888 43.088C79.9067 43.088 78.712 42.6187 77.304 41.68C75.8533 40.7413 74.296 39.504 72.632 37.968C70.9253 36.3893 69.2187 34.6827 67.512 32.848C65.8053 31.0133 64.184 29.1787 62.648 27.344C61.112 25.4667 59.768 23.7813 58.616 22.288C57.464 20.752 56.6107 19.5573 56.056 18.704C55.8 18.32 55.5653 17.936 55.352 17.552C55.1387 17.168 54.9253 16.7627 54.712 16.336C54.7547 16.2507 54.776 16.1013 54.776 15.888C54.776 15.632 54.5627 15.1413 54.136 14.416C53.7093 13.6907 53.2613 12.944 52.792 12.176C52.3227 11.408 52.0027 10.8747 51.832 10.576C51.448 10.2347 50.9787 9.97867 50.424 9.808C49.8267 9.63733 49.272 9.552 48.76 9.552C48.5467 9.552 48.248 9.59466 47.864 9.68C47.48 9.72267 47.288 9.91467 47.288 10.256V10.448C48.0133 11.5147 48.7387 12.5813 49.464 13.648C50.1893 14.7147 50.8933 15.8027 51.576 16.912C53.0267 19.2587 54.52 21.8187 56.056 24.592C57.592 27.3227 59.0213 30.16 60.344 33.104C61.6667 36.048 62.7973 39.0133 63.736 42C64.6747 44.944 65.272 47.8027 65.528 50.576C65.5707 50.8747 65.592 51.1733 65.592 51.472C65.592 51.7707 65.592 52.0693 65.592 52.368C65.592 52.7093 65.5707 53.1787 65.528 53.776C65.4427 54.416 65.2933 54.9707 65.08 55.44C64.8667 55.952 64.504 56.208 63.992 56.208C63.6507 56.208 63.3093 56.144 62.968 56.016C62.6267 55.9307 62.2853 55.888 61.944 55.888C61.9013 55.888 61.7947 55.888 61.624 55.888C61.4533 55.888 61.368 55.9307 61.368 56.016C61.368 56.1867 61.7093 56.3787 62.392 56.592C63.032 56.8053 63.736 56.976 64.504 57.104C65.2293 57.2747 65.72 57.36 65.976 57.36ZM97.016 26L97.464 25.936C98.2747 25.808 99.3627 25.5947 100.728 25.296C102.093 24.9547 103.48 24.5067 104.888 23.952C106.253 23.3547 107.405 22.6293 108.344 21.776C109.283 20.9227 109.752 19.92 109.752 18.768C109.752 17.6587 109.347 16.7413 108.536 16.016C107.683 15.2907 106.659 14.736 105.464 14.352C104.227 13.968 102.989 13.712 101.752 13.584C100.515 13.4133 99.512 13.328 98.744 13.328C97.848 13.328 96.952 13.3707 96.056 13.456C95.1173 13.5413 94.2213 13.648 93.368 13.776C91.0213 14.1173 88.6747 14.4373 86.328 14.736C83.9387 15.0347 81.5707 15.184 79.224 15.184C78.584 15.184 77.752 15.1413 76.728 15.056C75.6613 14.9707 74.872 14.6933 74.36 14.224C74.2747 14.1387 74.2107 14.0747 74.168 14.032C74.0827 13.9467 73.976 13.904 73.848 13.904C73.7627 13.904 73.72 13.9467 73.72 14.032C73.72 14.16 73.784 14.288 73.912 14.416C74.3813 15.0133 75.1493 15.4827 76.216 15.824C77.24 16.1227 78.3067 16.3147 79.416 16.4C80.5253 16.4853 81.4427 16.528 82.168 16.528C84.1307 16.528 86.1147 16.4213 88.12 16.208C90.0827 15.952 92.0453 15.6747 94.008 15.376C94.5627 15.2907 95.1387 15.2267 95.736 15.184C96.3333 15.0987 96.9307 15.056 97.528 15.056C98.424 15.056 99.512 15.184 100.792 15.44C102.029 15.696 103.117 16.1653 104.056 16.848C104.995 17.488 105.464 18.4267 105.464 19.664C105.464 20.6027 105.144 21.4347 104.504 22.16C103.864 22.8427 103.117 23.4187 102.264 23.888C101.368 24.3147 100.536 24.656 99.768 24.912C99.2987 25.04 98.8293 25.1467 98.36 25.232C97.8907 25.2747 97.4213 25.3387 96.952 25.424C96.8667 25.4667 96.76 25.5093 96.632 25.552C96.504 25.5947 96.44 25.6587 96.44 25.744C96.44 25.8293 96.5253 25.8933 96.696 25.936C96.824 25.9787 96.9307 26 97.016 26Z" fill="#D2E5FF"/>
</svg>
